{"title":"Spartacus Vengeance.S02E03.720p.x264.HDTV-r3mnants","uid":7025715,"size":689623900,"categoryP":"video","categoryS":"hd___tv_shows","magnet":"?xt=urn:btih:4bfde5f99b03e1aa54a11ed5b23228dfc311a892&amp;dn=Spartacus+Vengeance.S02E03.720p.x264.HDTV-r3mnants&amp;tr=udp%3A%2F%2Ftracker.openbittorrent.com%3A80&amp;tr=udp%3A%2F%2Fopen.demonii.com%3A1337&amp;tr=udp%3A%2F%2Ftracker.coppersurfer.tk%3A6969&amp;tr=udp%3A%2F%2Fexodus.desync.com%3A6969","seeders":3,"leechers":1,"uploader":"r3mnants","files":3,"time":1328990125,"description":"Spartacus Vengeance - The Greater Good - S02E03\n\nReleaser:\nr3mnants\n &lt;a href=&quot;\nhttp://www.shotpix.com/images/06621655559316699057.png&quot; rel=&quot;nofollow&quot; target=&quot;_NEW&quot;&gt;\nhttp://www.shotpix.com/images/06621655559316699057.png&lt;/a&gt; &lt;a href=&quot;\nhttp://www.shotpix.com/images/22684528467665030988.png&quot; rel=&quot;nofollow&quot; target=&quot;_NEW&quot;&gt;\nhttp://www.shotpix.com/images/22684528467665030988.png&lt;/a&gt;\n\nFormat                                   : MPEG-4\nFormat profile                           : Base Media\nCodec ID                                 : isom\nFile size                                : 656 MiB\nDuration                                 : 51mn 33s\nOverall bit rate mode                    : Variable\nOverall bit rate                         : 1780 Kbps\n\nVideo\nID                                       : 1\nFormat                                   : AVC\nFormat/Info                              : Advanced Video Codec\nFormat profile                           : &lt;a class=&quot;__cf_email__&quot; href=&quot;/cdn-cgi/l/email-protection&quot; data-cfemail=&quot;773f1e101f373b435947&quot;&gt;[email&amp;#160;protected]&lt;/a&gt;&lt;script cf-hash='f9e31' type=&quot;text/javascript&quot;&gt;\n/* &lt;![CDATA[ */!function(){try{var t=&quot;currentScript&quot;in document?document.currentScript:function(){for(var t=document.getElementsByTagName(&quot;script&quot;),e=t.length;e--;)if(t[e].getAttribute(&quot;cf-hash&quot;))return t[e]}();if(t&amp;&amp;t.previousSibling){var e,r,n,i,c=t.previousSibling,a=c.getAttribute(&quot;data-cfemail&quot;);if(a){for(e=&quot;&quot;,r=parseInt(a.substr(0,2),16),n=2;a.length-n;n+=2)i=parseInt(a.substr(n,2),16)^r,e+=String.fromCharCode(i);e=document.createTextNode(e),c.parentNode.replaceChild(e,c)}}}catch(u){}}();/* ]]&gt; */&lt;/script&gt;\nFormat settings, CABAC                   : Yes\nFormat settings, ReFrames                : 3 frames\nCodec ID                                 : avc1\nCodec ID/Info                            : Advanced Video Coding\nDuration                                 : 51mn 33s\nBit rate mode                            : Variable\nBit rate                                 : 1 648 Kbps\nMaximum bit rate                         : 25.0 Mbps\nWidth                                    : 1280 pixels\nHeight                                   : 720 pixels\nDisplay aspect ratio                     : 16:9\nFrame rate mode                          : Constant\nFrame rate                               : 29.970 fps\nColor space                              : YUV\nChroma subsampling                       : 4:2:0\nBit depth                                : 8 bits\nScan type                                : Progressive\nBits/(Pixel*Frame)                       : 0.060\nStream size                              : 608 MiB (93%)\nWriting library                          : x264 core 120 r2120 0c7dab9\n\nAudio\nID                                       : 2\nFormat                                   : AAC\nFormat/Info                              : Advanced Audio Codec\nFormat profile                           : LC\nCodec ID                                 : 40\nDuration                                 : 51mn 33s\nBit rate mode                            : Variable\nBit rate                                 : 128 Kbps\nMaximum bit rate                         : 152 Kbps\nChannel(s)                               : 2 channels\nChannel positions                        : Front: L R\nSampling rate                            : 48.0 KHz\nCompression mode                         : Lossy\nStream size                              : 47.2 MiB (7%)","torrent":{"xt":"urn:btih:4bfde5f99b03e1aa54a11ed5b23228dfc311a892","amp;dn":"Spartacus+Vengeance.S02E03.720p.x264.HDTV-r3mnants","amp;tr":["udp%3A%2F%2Ftracker.openbittorrent.com%3A80","udp%3A%2F%2Fopen.demonii.com%3A1337","udp%3A%2F%2Ftracker.coppersurfer.tk%3A6969","udp%3A%2F%2Fexodus.desync.com%3A6969"],"infoHash":"4bfde5f99b03e1aa54a11ed5b23228dfc311a892","infoHashBuffer":{"type":"Buffer","data":[75,253,229,249,155,3,225,170,84,161,30,213,178,50,40,223,195,17,168,146]},"announce":[],"urlList":[]}}